# xmcd
#
# Track frame offsets:
#	150
#	13273
#	28000
#	41697
#	55141
#	68175
#	81734
#	95772
#	111189
#	125317
#	139522
#	157399
#	172980
#	187427
#
# Disc length: 2697 seconds
# Revision: 1
# Processed by: cddbd v1.5.2PL0 Copyright (c) Steve Scherf et al.
# Submitted via: dBpowerAMP V12.0
#
DISCID=d10a870e
DTITLE=Frøya - My American Dream
DYEAR=2009
DGENRE=Country
TTITLE0=Alt Er Så Bra
TTITLE1=Kjærlighetsregn
TTITLE2=Ekte Texas-Skreppe
TTITLE3=Finnes Det En Annen
TTITLE4=My American Dream
TTITLE5=Du Og Jeg
TTITLE6=Et Eventyr
TTITLE7=Lev Livet Med Meg
TTITLE8=Kjærligheten
TTITLE9=Søte Små ord
TTITLE10=Vil Du Vite
TTITLE11=To Pina Coladas
TTITLE12=Rock 'n' Roll Radio
TTITLE13=Vår Dans
EXTD=
EXTT0=
EXTT1=
EXTT2=
EXTT3=
EXTT4=
EXTT5=
EXTT6=
EXTT7=
EXTT8=
EXTT9=
EXTT10=
EXTT11=
EXTT12=
EXTT13=
PLAYORDER=
